<svg width="36" height="36" viewBox="0 0 36 36" fill="none" xmlns="http://www.w3.org/2000/svg">
<rect width="36" height="36" rx="18" fill="#2F2F2F"/>
<mask id="mask0_492_42" style="mask-type:alpha" maskUnits="userSpaceOnUse" x="8" y="8" width="20" height="20">
<rect x="8" y="8" width="20" height="20" fill="#D9D9D9"/>
</mask>
<g mask="url(#mask0_492_42)">
<path d="M24.625 25.5C22.8889 25.5 21.1736 25.1215 19.4792 24.3646C17.7847 23.6076 16.2431 22.5347 14.8542 21.1458C13.4653 19.7569 12.3924 18.2153 11.6354 16.5208C10.8785 14.8264 10.5 13.1111 10.5 11.375C10.5 11.125 10.5833 10.9167 10.75 10.75C10.9167 10.5833 11.125 10.5 11.375 10.5H14.75C14.9444 10.5 15.1181 10.566 15.2708 10.6979C15.4236 10.8299 15.5139 10.9861 15.5417 11.1667L16.0833 14.0833C16.1111 14.3056 16.1042 14.4931 16.0625 14.6458C16.0208 14.7986 15.9444 14.9306 15.8333 15.0417L13.8125 17.0833C14.0903 17.5972 14.4201 18.0937 14.8021 18.5729C15.184 19.0521 15.6042 19.5139 16.0625 19.9583C16.4931 20.3889 16.9444 20.7882 17.4167 21.1563C17.8889 21.5243 18.3889 21.8611 18.9167 22.1667L20.875 20.2083C21 20.0833 21.1632 19.9896 21.3646 19.9271C21.566 19.8646 21.7639 19.8472 21.9583 19.875L24.8333 20.4583C25.0278 20.5139 25.1875 20.6146 25.3125 20.7604C25.4375 20.9062 25.5 21.0694 25.5 21.25V24.625C25.5 24.875 25.4167 25.0833 25.25 25.25C25.0833 25.4167 24.875 25.5 24.625 25.5Z" fill="white"/>
</g>
</svg>
