<?xml version="1.0" standalone="no"?>
<!DOCTYPE svg PUBLIC "-//W3C//DTD SVG 20010904//EN"
 "http://www.w3.org/TR/2001/REC-SVG-20010904/DTD/svg10.dtd">
<svg version="1.0" xmlns="http://www.w3.org/2000/svg"
 width="4167.000000pt" height="2917.000000pt" viewBox="0 0 4167.000000 2917.000000"
 preserveAspectRatio="xMidYMid meet">

<g transform="translate(0.000000,2917.000000) scale(0.100000,-0.100000)"
fill="#000000" stroke="none">
<path d="M35950 12905 l0 -794 -87 -3 -88 -3 -3 -2542 -2 -2543 -355 0 -355 0
0 975 0 975 -1830 0 -1830 0 0 170 c0 94 -2 170 -5 170 -2 0 -98 -41 -212 -91
-115 -50 -291 -127 -392 -170 l-184 -79 -1103 0 -1104 0 0 -990 0 -991 -97 3
-98 3 -3 1908 -2 1907 -425 0 -425 0 0 293 c0 162 -3 652 -7 1090 l-6 797
-424 0 -423 0 0 245 0 245 -180 0 -180 0 0 -210 0 -210 -1060 0 -1060 0 0
-840 0 -840 -994 0 -995 0 -245 -282 -245 -283 -1 -2342 0 -2343 -310 0 -310
0 0 1570 0 1570 -915 0 -915 0 -2 -1650 -3 -1650 -145 123 -145 123 -3 1647
-2 1647 -1745 0 -1745 0 0 1080 0 1080 -1812 -1 -1813 -1 -152 -168 -153 -169
0 -2185 0 -2186 -145 0 -145 0 0 1638 0 1638 -342 199 c-189 109 -355 207
-370 217 l-28 19 0 1210 0 1209 -1540 0 -1540 0 0 -516 0 -515 -203 -221
c-111 -122 -246 -269 -299 -327 l-97 -106 -1 -792 0 -793 -430 -2 c-236 -2
-483 -3 -547 -3 l-118 0 -3 168 -2 167 -1773 0 -1772 0 -302 -333 -303 -332 0
-462 0 -463 -700 0 -700 0 0 -4280 0 -4280 20835 0 20835 0 0 5360 0 5360
-690 0 -690 0 0 215 0 215 -672 2 -673 3 -3 1273 -2 1272 -1495 0 -1495 0 0
-795z"/>
</g>
</svg>
