<svg width="24" height="25" viewBox="0 0 24 25" fill="none" xmlns="http://www.w3.org/2000/svg">
<g id="Icon">
<g id="Group">
<path id="Vector" d="M17.2397 14.8756C17.0452 15.9619 16.5226 16.9625 15.7422 17.7428C14.9618 18.523 13.961 19.0454 12.8747 19.2397C12.8334 19.2463 12.7918 19.2497 12.75 19.25C12.5619 19.2499 12.3806 19.1792 12.2422 19.0517C12.1038 18.9243 12.0183 18.7495 12.0028 18.5621C11.9872 18.3746 12.0426 18.1881 12.1581 18.0396C12.2736 17.8911 12.4407 17.7914 12.6262 17.7603C14.1797 17.4987 15.4978 16.1806 15.7612 14.6243C15.7946 14.4282 15.9045 14.2533 16.0667 14.1381C16.229 14.0229 16.4304 13.977 16.6266 14.0103C16.8227 14.0436 16.9976 14.1535 17.1128 14.3158C17.228 14.478 17.2739 14.6794 17.2406 14.8756H17.2397ZM20.25 14C20.25 16.188 19.3808 18.2864 17.8336 19.8336C16.2865 21.3808 14.188 22.25 12 22.25C9.81196 22.25 7.71354 21.3808 6.16637 19.8336C4.61919 18.2864 3.75 16.188 3.75 14C3.75 11.3825 4.78125 8.70591 6.81188 6.04528C6.87615 5.96104 6.95755 5.89137 7.05071 5.84086C7.14387 5.79036 7.24667 5.76018 7.35235 5.75229C7.45802 5.74441 7.56417 5.75901 7.66379 5.79513C7.76341 5.83125 7.85425 5.88807 7.93031 5.96184L10.1916 8.15653L12.2541 2.4931C12.2953 2.38014 12.363 2.27875 12.4516 2.19746C12.5402 2.11618 12.6471 2.05739 12.7632 2.02605C12.8792 1.99471 13.0011 1.99174 13.1186 2.01738C13.2361 2.04303 13.3457 2.09654 13.4381 2.17341C15.4884 3.87497 20.25 8.42653 20.25 14ZM18.75 14C18.75 9.67903 15.3947 5.94497 13.2928 4.03153L11.205 9.75684C11.1621 9.87444 11.0906 9.97943 10.9967 10.0623C10.9029 10.1451 10.7899 10.2032 10.6679 10.2311C10.5459 10.2591 10.4188 10.2561 10.2983 10.2223C10.1778 10.1886 10.0676 10.1253 9.97781 10.0381L7.50562 7.63997C6.00844 9.80091 5.25 11.9375 5.25 14C5.25 15.7902 5.96116 17.5071 7.22703 18.7729C8.4929 20.0388 10.2098 20.75 12 20.75C13.7902 20.75 15.5071 20.0388 16.773 18.7729C18.0388 17.5071 18.75 15.7902 18.75 14Z" fill="white"/>
</g>
</g>
</svg>
