<svg id="Layer_1" data-name="Layer 1" xmlns="http://www.w3.org/2000/svg" viewBox="0 0 63.97 27.57"><defs><style>.cls-1{fill:#fff;}</style></defs><path class="cls-1" d="M12.27,18H44.42v1H12.27a.5.5,0,0,1-.5-.5A.51.51,0,0,1,12.27,18Z"/><path class="cls-1" d="M45.9,18v.28a.18.18,0,0,1,0,.1v.26a.51.51,0,0,1-.15.36h-.67a.51.51,0,0,1-.15-.36V18Z"/><path class="cls-1" d="M53.74,18.49a.5.5,0,0,1-.5.5H46.37V18h6.87A.51.51,0,0,1,53.74,18.49Z"/><path class="cls-1" d="M12.27,8.63H34.72v1H12.27a.5.5,0,0,1,0-1Z"/><path class="cls-1" d="M36.67,8.93v.42a.42.42,0,0,1-.1.28H35.24a.43.43,0,0,1-.09-.26l0-.44a.47.47,0,0,1,.1-.3h1.28A.44.44,0,0,1,36.67,8.93Z"/><path class="cls-1" d="M53.74,9.13a.5.5,0,0,1-.5.5H37.11v-1H53.24A.5.5,0,0,1,53.74,9.13Z"/><path class="cls-1" d="M45.9,17.08v1.19a.18.18,0,0,1,0,.1v.26a.51.51,0,0,1-.15.36.49.49,0,0,1-.33.13.48.48,0,0,1-.49-.49V17.08Z"/><path class="cls-1" d="M36.67,8.93v.42a.42.42,0,0,1-.1.28s0,0,0,.08a.45.45,0,0,1-.35.15h-.52a.49.49,0,0,1-.36-.15.35.35,0,0,1,0-.08.43.43,0,0,1-.09-.26l0-.44a.47.47,0,0,1,.1-.3l0-.05a.5.5,0,0,1,.35-.14h.51a.48.48,0,0,1,.35.14s0,0,0,.05A.44.44,0,0,1,36.67,8.93Z"/><path class="cls-1" d="M16.91,11.9v-.4a.48.48,0,0,0-.14-.36.45.45,0,0,0-.35-.15H12.68a.49.49,0,0,0-.35.15.47.47,0,0,0-.14.35.45.45,0,0,0,.14.35.47.47,0,0,0,.35.15h3l-3.42,3.29a.68.68,0,0,0-.26.47v.42a.46.46,0,0,0,.14.35.52.52,0,0,0,.36.14h4a.5.5,0,0,0,.35-.14.49.49,0,0,0-.35-.84H13.25l3.49-3.38A.52.52,0,0,0,16.91,11.9Z"/><path class="cls-1" d="M23.66,14.54a.51.51,0,0,0,.49-.49V12.86a1.36,1.36,0,0,0-.4-1.07l-.37-.35a1.4,1.4,0,0,0-1-.43H21a1.44,1.44,0,0,0-.9.32l-.41.33a1.65,1.65,0,0,0-.53,1v2.25a1.48,1.48,0,0,0,.48,1l.44.39a1.59,1.59,0,0,0,.42.22,1.58,1.58,0,0,0,.54.11h2.6a.46.46,0,0,0,.34-.15.45.45,0,0,0,.15-.34.47.47,0,0,0-.15-.35.44.44,0,0,0-.34-.14H21.13a.72.72,0,0,1-.45-.19l-.28-.24a.51.51,0,0,1-.22-.42v-.29Zm-3.47-1.76a.46.46,0,0,1,.19-.38l.29-.24a.67.67,0,0,1,.42-.16h1.23a.67.67,0,0,1,.4.18l.29.26a.51.51,0,0,1,.17.42v.68h-3Z"/><path class="cls-1" d="M31.27,12.44a1.5,1.5,0,0,0-.45-1,1.42,1.42,0,0,0-1-.42h-.45a1.93,1.93,0,0,0-1,.29l-.89.55V11.5a.49.49,0,0,0-.15-.36.47.47,0,0,0-.35-.15.45.45,0,0,0-.34.15.49.49,0,0,0-.15.36v4.67a.45.45,0,0,0,.15.34.46.46,0,0,0,.34.15.47.47,0,0,0,.35-.15.45.45,0,0,0,.15-.34V13l1.34-.87a.9.9,0,0,1,.48-.17h.48a.47.47,0,0,1,.54.51l.15,3.68a.5.5,0,0,0,.15.36.48.48,0,0,0,.34.13.45.45,0,0,0,.35-.15.41.41,0,0,0,.14-.34Z"/><path class="cls-1" d="M38,15.81a.49.49,0,0,0-.36-.15h-1V11.5a.49.49,0,0,0-.15-.36.45.45,0,0,0-.35-.15h-1.5a.45.45,0,0,0-.34.15.49.49,0,0,0-.15.36.51.51,0,0,0,.49.49h1v3.67h-1a.49.49,0,0,0-.35.15.5.5,0,0,0-.14.35.48.48,0,0,0,.49.49h3a.5.5,0,0,0,.35-.14.47.47,0,0,0,.14-.35A.45.45,0,0,0,38,15.81ZM36.55,8.63s0,0,0-.05a.48.48,0,0,0-.35-.14h-.51a.5.5,0,0,0-.35.14l0,.05a.47.47,0,0,0-.1.3l0,.44a.43.43,0,0,0,.09.26.35.35,0,0,0,0,.08.49.49,0,0,0,.36.15h.52a.45.45,0,0,0,.35-.15s0-.05,0-.08a.42.42,0,0,0,.1-.28V8.93A.44.44,0,0,0,36.55,8.63Z"/><path class="cls-1" d="M45.75,11.14A.45.45,0,0,0,45.4,11a.5.5,0,0,0-.49.5v.2a2.1,2.1,0,0,0-1.36-.7h-.72a1.57,1.57,0,0,0-1.1.45l-.36.31a1.35,1.35,0,0,0-.43,1.08v2.06a1.42,1.42,0,0,0,.13.58,1.22,1.22,0,0,0,.34.47l.45.39a1.51,1.51,0,0,0,1,.33h.66a1.6,1.6,0,0,0,1-.4l.37-.31v2.32a.5.5,0,0,0,.49.5.45.45,0,0,0,.35-.15.36.36,0,0,0,.13-.25.18.18,0,0,0,0-.1V11.49A.45.45,0,0,0,45.75,11.14Zm-1,3.66-.88.76a.63.63,0,0,1-.39.1H42.8a.53.53,0,0,1-.35-.13l-.32-.29a.51.51,0,0,1-.21-.38V12.78a.48.48,0,0,1,.18-.36l.37-.32a.46.46,0,0,1,.29-.11h.8a.55.55,0,0,1,.4.18l.75.66a.55.55,0,0,1,.2.39v1.13A.55.55,0,0,1,44.75,14.8Z"/><path class="cls-1" d="M53.14,15.86l-1.75-2.11,1.67-2a.45.45,0,0,0,.06-.27.43.43,0,0,0-.15-.34.5.5,0,0,0-.34-.13.41.41,0,0,0-.35.17L50.75,13l-1.49-1.79a.49.49,0,0,0-.4-.18.45.45,0,0,0-.35.15.54.54,0,0,0-.14.35.44.44,0,0,0,.11.29l1.64,1.95-1.77,2.11a.52.52,0,0,0,0,.65.45.45,0,0,0,.35.15.49.49,0,0,0,.39-.2l1.61-1.92,1.6,1.92a.5.5,0,0,0,.39.2.49.49,0,0,0,.35-.15.51.51,0,0,0,.15-.37A.43.43,0,0,0,53.14,15.86Z"/><path class="cls-1" d="M45.9,17.15v1.48a.48.48,0,0,1-.49.49.56.56,0,0,1-.35-.13.51.51,0,0,1-.15-.36V17.15a.17.17,0,0,1,0-.07.49.49,0,0,1,.49-.42.48.48,0,0,1,.48.42A.17.17,0,0,1,45.9,17.15Z"/></svg>