<svg id="Layer_1" data-name="Layer 1" xmlns="http://www.w3.org/2000/svg" viewBox="0 0 63.97 27.57"><defs><style>.cls-1{fill:#fff;}</style></defs><rect x="2.88" y="18.55" width="43.63" height="1"/><path d="M46.84,18.55h3.77a1,1,0,0,1-.15.21,2,2,0,0,1-.29.29,2.32,2.32,0,0,1-2.88,0l0,0A2.41,2.41,0,0,1,46.84,18.55Z"/><rect x="50.85" y="18.55" width="10.36" height="1"/><path class="cls-1" d="M50.75,18.32a1.76,1.76,0,0,1-.14.23,1,1,0,0,1-.15.21,2,2,0,0,1-.29.29,2.32,2.32,0,0,1-2.88,0l0,0a2.41,2.41,0,0,1-.42-.48,1.14,1.14,0,0,1-.15-.23Z"/><path d="M12.36,9V8.86H3.44v4h.19a12,12,0,0,1,1.74-2.5,2.9,2.9,0,0,1,2-1.24l1.38,0v.06L2.88,17.47v.13h9.2V13.44h-.19A13,13,0,0,1,10.17,16c-.74.87-1.39,1.31-2,1.31l-.88,0H6.48V17.3Z"/><path d="M22.33,13.79a8.11,8.11,0,0,1-1.27,2.28c-.58.74-1.06,1.14-1.46,1.19s-.76.08-1.11.09h-1V13.24l.5,0a1.33,1.33,0,0,1,1.05.67,2.68,2.68,0,0,1,.35,1.41h.23V11h-.23A2.54,2.54,0,0,1,19,12.34,1.34,1.34,0,0,1,18,13l-.5,0,0-3.94h.11l.54,0c.27,0,.6,0,1,.07a2.69,2.69,0,0,1,1.47,1,8.14,8.14,0,0,1,1.49,2.26h.19V8.86H13.05v.19l.38,0a2.71,2.71,0,0,1,.47,0,.66.66,0,0,1,.4.19.86.86,0,0,1,.18.54l0,.55v5.69l0,.55a.93.93,0,0,1-.17.54.65.65,0,0,1-.4.18l-.46,0a2.43,2.43,0,0,1-.36,0v.19h9.43V13.79Z"/><path d="M30.48,8.86v.19l.36,0a4.75,4.75,0,0,1,.52.07.75.75,0,0,1,.49.25,1.1,1.1,0,0,1,.2.58l0,.58v3.83h0L27.71,8.86H23.12v.19h.36a1.8,1.8,0,0,1,.5.08,1.22,1.22,0,0,1,.48.3,2.8,2.8,0,0,1,.38.47l0,.55v5.46l0,.58q-.07.74-.57.81l-.68.09-.35,0v.19h3.47v-.19l-.32,0a4.73,4.73,0,0,1-.56-.07.82.82,0,0,1-.5-.24,1.11,1.11,0,0,1-.19-.59l0-.58v-5.6h.05l5.7,7.29h1.46v-7l0-.58a1.08,1.08,0,0,1,.21-.61.75.75,0,0,1,.51-.27c.22,0,.4-.06.52-.07l.34,0V8.86Z"/><path d="M38.7,9.8a.88.88,0,0,1,.16-.54.82.82,0,0,1,.5-.18l.64,0V8.86H34.39v.19l.65,0a.75.75,0,0,1,.49.19,1,1,0,0,1,.17.54l0,.55v5.7l0,.55a1,1,0,0,1-.18.53.76.76,0,0,1-.47.2l-.47.05h-.23v.19H40v-.19l-.62,0a1,1,0,0,1-.51-.19.86.86,0,0,1-.17-.53l0-.56V10.36Z"/><path d="M51,15.84a1.37,1.37,0,0,1-.36,1,1.49,1.49,0,0,1-1,.34,1.88,1.88,0,0,1-.57-.09,2.18,2.18,0,0,1-.5-.19,4.83,4.83,0,0,0,1.61-1.57,4,4,0,0,0,.61-2.13A4.14,4.14,0,0,0,49.26,10a5.25,5.25,0,0,0-6.85,0A4.14,4.14,0,0,0,41,13.24a4.21,4.21,0,0,0,1.38,3.23,4.93,4.93,0,0,0,3.45,1.28l.29,0,.28,0a3.41,3.41,0,0,0,.3.64,1.14,1.14,0,0,0,.15.23,2.41,2.41,0,0,0,.42.48l0,0a2.32,2.32,0,0,0,2.88,0,2,2,0,0,0,.29-.29,1,1,0,0,0,.15-.21,1.76,1.76,0,0,0,.14-.23A3.27,3.27,0,0,0,51,17.6l0-.19a3.77,3.77,0,0,0,.06-.69v-.88Zm-5.13,1.68a1.15,1.15,0,0,1-1-.57,1,1,0,0,1,.2-.48.51.51,0,0,1,.42-.17.62.62,0,0,1,.55.31,2.57,2.57,0,0,1,.3.8A1.2,1.2,0,0,1,45.82,17.52ZM46.59,16a1.73,1.73,0,0,0-.81-.19,1,1,0,0,0-.72.29,1.17,1.17,0,0,0-.34.66h0a4.83,4.83,0,0,1-.34-1.51,19.22,19.22,0,0,1-.1-2,16.89,16.89,0,0,1,.08-1.76,6.54,6.54,0,0,1,.25-1.41,1.75,1.75,0,0,1,.5-.83A1.11,1.11,0,0,1,45.82,9,1.14,1.14,0,0,1,47,9.77a7,7,0,0,1,.36,1.61c0,.53.07,1.14.07,1.86s0,1.15-.08,1.68a6.34,6.34,0,0,1-.27,1.39Z"/><path d="M60.81,17.38a1.23,1.23,0,0,1-.6-.25,4.23,4.23,0,0,1-.68-.89l-1.18-1.86q-.72-1.16-1.53-2.49l.89-1.1c.3-.38.58-.7.82-1a2.52,2.52,0,0,1,.63-.55,2.61,2.61,0,0,1,.69-.19l.45,0V8.86H57.21v.19h.26l.44,0a.31.31,0,0,1,.31.36A1.06,1.06,0,0,1,58,10c-.16.23-.35.5-.58.79l-.69.88-1-1.68a4.41,4.41,0,0,1-.21-.39.75.75,0,0,1,0-.26.23.23,0,0,1,.1-.22,1.21,1.21,0,0,1,.36-.08l.51,0V8.86H50.88v.19l.37,0a1.21,1.21,0,0,1,.63.27,3.64,3.64,0,0,1,.63.83l2.35,3.75L53.8,15.25l-1.11,1.33a2.69,2.69,0,0,1-.71.62,1.8,1.8,0,0,1-.53.17l-.39,0h-.32v.19H54v-.19l-.31,0a3.29,3.29,0,0,1-.49,0,.31.31,0,0,1-.29-.35,1.07,1.07,0,0,1,.23-.54c.15-.21.37-.51.67-.9s.67-.87,1.13-1.45l1.41,2.32a1.22,1.22,0,0,1,.23.61c0,.2-.15.32-.44.35l-.51,0v.19h5.55v-.19Z"/><rect x="2.88" y="7.03" width="58.33" height="1"/></svg>