<svg id="Layer_1" data-name="Layer 1" xmlns="http://www.w3.org/2000/svg" viewBox="0 0 63.97 27.57"><defs><style>.cls-1{fill:#fff;}</style></defs><rect class="cls-1" x="2.82" y="19.39" width="43.63" height="1"/><path class="cls-1" d="M46.79,19.39h3.75a1.43,1.43,0,0,1-.14.2,2.3,2.3,0,0,1-3.19.27A2.36,2.36,0,0,1,46.79,19.39Z"/><rect class="cls-1" x="50.79" y="19.39" width="10.36" height="1"/><path d="M50.79,19.15v.24h-.25a1.43,1.43,0,0,1-.14.2,2.3,2.3,0,0,1-3.19.27,2.36,2.36,0,0,1-.42-.47,1.25,1.25,0,0,1-.16-.24Z"/><path class="cls-1" d="M12.3,9.82V9.69H3.38v4h.19a12.21,12.21,0,0,1,1.74-2.51,2.93,2.93,0,0,1,2-1.24l1.38,0V10L2.82,18.31v.13H12V14.27h-.19a13,13,0,0,1-1.72,2.58c-.73.88-1.39,1.31-2,1.31l-.89,0-.84,0v-.06Z"/><path class="cls-1" d="M22.27,14.62A8,8,0,0,1,21,16.91c-.58.74-1.06,1.13-1.45,1.19a9.07,9.07,0,0,1-1.12.08l-1,0V14.07l.5,0a1.31,1.31,0,0,1,1.05.68,2.65,2.65,0,0,1,.36,1.4h.22V11.8h-.22A2.52,2.52,0,0,1,19,13.17a1.31,1.31,0,0,1-1.05.66l-.5,0,0-3.93h.65c.27,0,.61,0,1,.07a2.75,2.75,0,0,1,1.47,1A8.07,8.07,0,0,1,22,13.24h.19V9.69H13v.19l.38,0a4.26,4.26,0,0,1,.47,0,.63.63,0,0,1,.4.19.9.9,0,0,1,.18.54l0,.56v5.68l0,.55a.93.93,0,0,1-.17.54.62.62,0,0,1-.4.18l-.46.05-.36,0v.19h9.43V14.62Z"/><path class="cls-1" d="M30.42,9.69v.19l.36,0,.53.07a.8.8,0,0,1,.48.25,1.06,1.06,0,0,1,.2.59l0,.57v3.83h0L27.65,9.69H23.06v.19h.37a1.86,1.86,0,0,1,.5.08,1.17,1.17,0,0,1,.47.31,2.73,2.73,0,0,1,.38.46l0,.56v5.46l0,.57c-.05.49-.24.76-.56.81l-.69.09-.35,0v.19h3.47v-.19l-.32,0a5,5,0,0,1-.56-.07.74.74,0,0,1-.49-.24,1,1,0,0,1-.2-.59l0-.57V11.14h.05l5.7,7.3h1.47v-7l0-.58a1.08,1.08,0,0,1,.21-.6A.81.81,0,0,1,33,10l.52-.07.34,0V9.69Z"/><path class="cls-1" d="M38.64,10.64a1,1,0,0,1,.16-.55.76.76,0,0,1,.5-.17l.65,0V9.69H34.33v.19l.65,0a.78.78,0,0,1,.5.2,1.1,1.1,0,0,1,.16.53l0,.55v5.7l0,.55a.91.91,0,0,1-.18.53.68.68,0,0,1-.46.2l-.48,0h-.23v.19H40v-.19l-.63,0a.81.81,0,0,1-.51-.19.86.86,0,0,1-.17-.53l0-.55V11.19Z"/><path class="cls-1" d="M50.89,16.67a1.35,1.35,0,0,1-.36,1,1.42,1.42,0,0,1-1,.34,2.24,2.24,0,0,1-.57-.08,2.36,2.36,0,0,1-.5-.2A4.83,4.83,0,0,0,50,16.2a3.91,3.91,0,0,0,.61-2.13,4.11,4.11,0,0,0-1.45-3.23,5,5,0,0,0-3.43-1.28,5,5,0,0,0-3.42,1.25,4.16,4.16,0,0,0-1.42,3.27,4.18,4.18,0,0,0,1.39,3.22,4.89,4.89,0,0,0,3.45,1.28l.28,0,.28,0a3.41,3.41,0,0,0,.3.64,1.25,1.25,0,0,0,.16.24,2.36,2.36,0,0,0,.42.47,2.3,2.3,0,0,0,3.19-.27,1.43,1.43,0,0,0,.14-.2,1,1,0,0,0,.15-.24,2.62,2.62,0,0,0,.27-.71,1.18,1.18,0,0,0,0-.2,3.77,3.77,0,0,0,.06-.69v-.88Zm-5.12,1.68a1.17,1.17,0,0,1-1-.57,1,1,0,0,1,.2-.48.54.54,0,0,1,.42-.17.61.61,0,0,1,.55.31,2.84,2.84,0,0,1,.31.8A1.05,1.05,0,0,1,45.77,18.35Zm.76-1.53a1.62,1.62,0,0,0-.81-.19,1,1,0,0,0-.72.28,1.3,1.3,0,0,0-.34.67h0a4.91,4.91,0,0,1-.34-1.52,19.08,19.08,0,0,1-.1-2c0-.6,0-1.19.08-1.76a6.32,6.32,0,0,1,.25-1.4,1.87,1.87,0,0,1,.5-.84,1.11,1.11,0,0,1,.77-.28,1.12,1.12,0,0,1,1.16.82,6.92,6.92,0,0,1,.36,1.6c.05.53.07,1.15.07,1.86a15.32,15.32,0,0,1-.08,1.69A6.25,6.25,0,0,1,47,17.14Z"/><path class="cls-1" d="M60.75,18.21a1.18,1.18,0,0,1-.6-.25,4.23,4.23,0,0,1-.68-.89c-.3-.47-.7-1.09-1.18-1.86l-1.53-2.48.89-1.1c.3-.38.58-.71.82-1a2.49,2.49,0,0,1,.64-.54,2.4,2.4,0,0,1,.68-.2l.45,0V9.69H57.16v.19h.25l.45,0q.3,0,.3.36a1.14,1.14,0,0,1-.24.59c-.17.23-.36.49-.59.78s-.45.59-.69.88l-1-1.68a2.41,2.41,0,0,1-.2-.39.56.56,0,0,1,0-.25c0-.12,0-.19.11-.23a1.39,1.39,0,0,1,.36-.08l.5,0V9.69H50.82v.19l.37,0a1.21,1.21,0,0,1,.63.26,4.2,4.2,0,0,1,.64.83l2.34,3.76-1.06,1.32c-.46.56-.82,1-1.11,1.32a2.8,2.8,0,0,1-.71.63,1.7,1.7,0,0,1-.52.16l-.4,0h-.31v.19H54v-.19l-.31,0-.48,0a.32.32,0,0,1-.3-.35,1,1,0,0,1,.23-.54c.15-.22.38-.52.67-.91s.67-.87,1.13-1.45l1.42,2.32a1.33,1.33,0,0,1,.22.61c0,.2-.14.32-.44.35l-.5,0v.19h5.54v-.19Z"/><rect class="cls-1" x="2.82" y="7.87" width="58.33" height="1"/></svg>